<svg width="24" height="24" viewBox="0 0 24 24" fill="none" xmlns="http://www.w3.org/2000/svg">
<path d="M16 2H8C4.68629 2 2 4.68629 2 8V16C2 19.3137 4.68629 22 8 22H16C19.3137 22 22 19.3137 22 16V8C22 4.68629 19.3137 2 16 2Z" stroke="#B39DDB" stroke-width="2" stroke-linecap="round" stroke-linejoin="round"/>
<path d="M12 15C13.6569 15 15 13.6569 15 12C15 10.3431 13.6569 9 12 9C10.3431 9 9 10.3431 9 12C9 13.6569 10.3431 15 12 15Z" stroke="#B39DDB" stroke-width="2" stroke-linecap="round" stroke-linejoin="round"/>
<path d="M16.5 7.5V7.501" stroke="#B39DDB" stroke-width="2" stroke-linecap="round" stroke-linejoin="round"/>
</svg>
